<svg width="800" height="600" viewBox="0 0 800 600" xmlns="http://www.w3.org/2000/svg">
  <rect width="800" height="600" fill="#f8f9fa" />
  <rect x="50" y="50" width="700" height="500" rx="10" fill="#ffffff" stroke="#e9ecef" stroke-width="2" />
  
  <!-- Header -->
  <rect x="80" y="80" width="640" height="60" rx="5" fill="#0088cc" />
  <circle cx="110" cy="110" r="15" fill="#ffffff" />
  <rect x="140" y="100" width="120" height="20" rx="3" fill="#ffffff" opacity="0.8" />
  <rect x="520" y="100" width="80" height="20" rx="3" fill="#ffffff" opacity="0.6" />
  <rect x="610" y="100" width="80" height="20" rx="3" fill="#ffffff" opacity="0.6" />
  
  <!-- Content -->
  <rect x="80" y="160" width="300" height="30" rx="3" fill="#495057" />
  <rect x="80" y="200" width="400" height="20" rx="3" fill="#6c757d" opacity="0.7" />
  <rect x="80" y="230" width="380" height="20" rx="3" fill="#6c757d" opacity="0.7" />
  
  <!-- Posts -->
  <rect x="80" y="280" width="640" height="100" rx="5" fill="#f1f3f5" />
  <rect x="100" y="300" width="200" height="20" rx="3" fill="#495057" opacity="0.8" />
  <rect x="100" y="330" width="300" height="15" rx="3" fill="#6c757d" opacity="0.6" />
  <rect x="100" y="355" width="100" height="15" rx="3" fill="#0088cc" opacity="0.8" />
  
  <rect x="80" y="400" width="640" height="100" rx="5" fill="#f1f3f5" />
  <rect x="100" y="420" width="180" height="20" rx="3" fill="#495057" opacity="0.8" />
  <rect x="100" y="450" width="320" height="15" rx="3" fill="#6c757d" opacity="0.6" />
  <rect x="100" y="475" width="100" height="15" rx="3" fill="#0088cc" opacity="0.8" />
  
  <!-- Telegram Icon -->
  <circle cx="700" cy="500" r="40" fill="#0088cc" />
  <path d="M680 500 L690 510 L720 480" stroke="#ffffff" stroke-width="5" fill="none" />
</svg> 